TITLE "DJH524"
  TRACK 01 AUDIO
    TITLE "DJH52401"
    INDEX 01 00:00:19
  TRACK 02 AUDIO
    TITLE "DJH52402"
    INDEX 01 03:25:19
  TRACK 03 AUDIO
    TITLE "DJH52403"
    INDEX 01 08:13:42
  TRACK 04 AUDIO
    TITLE "DJH52404"
    INDEX 01 14:50:01
  TRACK 05 AUDIO
    TITLE "DJH52405"
    INDEX 01 21:11:92
  TRACK 06 AUDIO
    TITLE "DJH52406"
    INDEX 01 26:15:61
  TRACK 07 AUDIO
    TITLE "DJH52407"
    INDEX 01 34:15:52
  TRACK 08 AUDIO
    TITLE "DJH52408"
    INDEX 01 39:45:05
